<svg xmlns="http://www.w3.org/2000/svg" viewBox="0 0 321.53 321"><defs><style>.cls-1{fill:#070808;}</style></defs><g id="Layer_2" data-name="Layer 2"><g id="Layer_1-2" data-name="Layer 1"><g id="E2qL7f60-NQcqnYHuyY2S"><g id="p4j0oom2xczgNvd_7C_Jg" data-name="p4j0oom2xczgNvd 7C Jg"><path class="cls-1" d="M319.93,138.13A160.64,160.64,0,0,0,4.57,123.59c12.36-3.22,31.56-7.14,45.75-5.94,12.84,1.12,81.67,7.41,81.67,7.41a58.45,58.45,0,0,1,22.89-8c22.12-3.12,40.42,7.37,42.68,23.33,1.93,13.62-7.36,21.6-19.53,23.32-13.61,1.93-35.25-3.82-54.87-5.72C106.79,156.39,95.5,170,97.7,185.57c4,28.27,36.91,45.77,79.84,39.7,38.08-5.38,60.78-36.49,55.24-75.62-6.4-45.28-44.05-67.06-79.13-62.1-13.61,1.93-27.52,9.23-34.58,16.91a4.79,4.79,0,0,1-4.44,1.69c-5.13-.47-16.39-1.68-18.68-1.89-3-.25-3.87-1.86-2.86-5.07,6.48-21.21,33.65-37.73,57.07-41,50.13-7.08,101.34,22.78,111.06,91.49,7.79,55.1-25.4,103.58-78,111-54.83,7.75-103.82-20.56-110.59-68.46-2.28-16.1,4-32.46,13.17-39l-39.22-4.6c-14.38-1.57-33-8.82-44.55-13.86a160.74,160.74,0,1,0,317.92,3.37"/></g></g></g></g></svg>