<?xml version="1.0" encoding="UTF-8" standalone="no" ?>
<!DOCTYPE svg PUBLIC "-//W3C//DTD SVG 1.1//EN" "http://www.w3.org/Graphics/SVG/1.1/DTD/svg11.dtd">
<svg xmlns="http://www.w3.org/2000/svg" xmlns:xlink="http://www.w3.org/1999/xlink" version="1.1" width="500" height="500" viewBox="0 0 500 500" xml:space="preserve">
<desc>Created with Fabric.js 4.6.0</desc>
<defs>
</defs>
<g transform="matrix(4.04 0 0 4.04 250 250.75)" id="ECxXbMhCFDIGA88K7Ns6g"  >
<path style="stroke: none; stroke-width: 1; stroke-dasharray: none; stroke-linecap: butt; stroke-dashoffset: 0; stroke-linejoin: miter; stroke-miterlimit: 4; fill: rgb(226,226,226); fill-opacity: 0.89; fill-rule: evenodd; opacity: 1;" vector-effect="non-scaling-stroke"  transform=" translate(-61.44, -61.44)" d="M 61.44 0 C 95.37 0 122.88 27.51 122.88 61.44 C 122.88 95.37 95.36999999999999 122.88 61.44 122.88 C 27.510000000000005 122.88 0 95.37 0 61.44 C 0 27.51 27.51 0 61.44 0 L 61.44 0 z M 52.56 84 C 50.74 84.61 48.88 85.17 47.06 85.77 C 45.24 86.38 43.42 86.97999999999999 41.56 87.58999999999999 C 37.22 88.99 34.85 89.77999999999999 34.33 89.91999999999999 C 33.82 90.05999999999999 34.14 88.05999999999999 35.22 83.85999999999999 L 38.67 70.66999999999999 L 64.68 43.62999999999999 L 78.53 56.95999999999999 L 52.56 84 L 52.56 84 L 52.56 84 z M 78.48 33.84 C 77.83 33.230000000000004 77.08 32.910000000000004 76.24000000000001 32.95 C 75.4 32.95 74.65 33.28 74.05000000000001 33.93 L 69.11000000000001 39.06 L 82.96000000000001 52.440000000000005 L 87.95 47.220000000000006 C 88.56 46.61000000000001 88.79 45.82000000000001 88.79 44.980000000000004 C 88.79 44.14 88.46000000000001 43.35 87.86 42.790000000000006 L 78.48 33.84 L 78.48 33.84 L 78.48 33.84 z" stroke-linecap="round" />
</g>
</svg>