<!DOCTYPE svg PUBLIC "-//W3C//DTD SVG 1.1//EN" "http://www.w3.org/Graphics/SVG/1.1/DTD/svg11.dtd">
<!-- Uploaded to: SVG Repo, www.svgrepo.com, Transformed by: SVG Repo Mixer Tools -->
<svg fill="#5e5e5e" version="1.1" id="Capa_1" xmlns="http://www.w3.org/2000/svg" xmlns:xlink="http://www.w3.org/1999/xlink" width="800px" height="800px" viewBox="-0.8 -0.8 41.60 41.60" xml:space="preserve" stroke="#5e5e5e" stroke-width="0.0004">
<g id="SVGRepo_bgCarrier" stroke-width="0"/>
<g id="SVGRepo_tracerCarrier" stroke-linecap="round" stroke-linejoin="round"/>
<g id="SVGRepo_iconCarrier"> <g> <path d="M20,0C8.973,0,0,8.973,0,20c0,11.027,8.973,20,20,20c11.027,0,20-8.973,20-20C40,8.973,31.027,0,20,0z M28.018,19.752 c-0.451,0.531-1.094,0.805-1.738,0.805c-0.521,0-1.047-0.179-1.477-0.543l-2.521-2.141v9.186c0,1.26-1.021,2.28-2.281,2.28 c-1.26,0-2.281-1.021-2.281-2.28v-9.186l-2.521,2.141c-0.96,0.816-2.4,0.698-3.216-0.262c-0.816-0.961-0.698-2.4,0.262-3.216 l6.279-5.333c0.852-0.723,2.102-0.723,2.955,0l6.278,5.333C28.716,17.352,28.834,18.791,28.018,19.752z"/> </g> </g>
</svg>