<svg xmlns="http://www.w3.org/2000/svg" viewBox="0 0 976.6 321"><defs><style>.cls-1{fill:#231f20;}.cls-2{fill:#070808;}</style></defs><g id="Layer_2" data-name="Layer 2"><g id="Layer_1-2" data-name="Layer 1"><path class="cls-1" d="M378.47,88.17h49.92a68.63,68.63,0,0,1,14.87,1.52,44.7,44.7,0,0,1,12,4.36,38.2,38.2,0,0,1,9.05,6.82,33.63,33.63,0,0,1,6.3,9,47.75,47.75,0,0,1,3.64,10.75,57.7,57.7,0,0,1,1.24,12.26,52.19,52.19,0,0,1-2.32,16,36.46,36.46,0,0,1-6.64,12.36,37.65,37.65,0,0,1-10.46,8.67,49.25,49.25,0,0,1-13.79,5.21,75.9,75.9,0,0,1-16.62,1.71H401.86V226H378.47Zm44.9,67.54q13.92,0,20.88-6.3t7-17q0-11-6.82-17.1T425,109.2H401.86v46.51Z"/><path class="cls-1" d="M489.06,113a14.31,14.31,0,0,1,0-20.37,14.27,14.27,0,0,1,10.42-4.21,14.11,14.11,0,0,1,10.28,4.26,14,14,0,0,1,2.32,17.33,14.59,14.59,0,0,1-5.35,5.26A14.81,14.81,0,0,1,489.06,113Zm-.56,18.33h21.69V226H488.5Z"/><path class="cls-1" d="M609.18,139.85q9.24,9.9,9.24,30.45v55.79H596.73v-50.2a50.68,50.68,0,0,0-1.33-12.5,18.62,18.62,0,0,0-4.07-8.1,16.11,16.11,0,0,0-6.4-4.31,25.55,25.55,0,0,0-8.76-1.33,25.91,25.91,0,0,0-10,1.89,21.38,21.38,0,0,0-7.77,5.5,24.66,24.66,0,0,0-5,9.09,40.43,40.43,0,0,0-1.75,12.32V226h-21.7V131.37h21.7v13h.28a39.77,39.77,0,0,1,14.21-10.71A42.36,42.36,0,0,1,583.65,130Q600,130,609.18,139.85Z"/><path class="cls-1" d="M725.7,131.37v84.87a76.28,76.28,0,0,1-1.61,16.2,46.47,46.47,0,0,1-5.26,13.64,36.52,36.52,0,0,1-9.18,10.56A41,41,0,0,1,696,263.37a65,65,0,0,1-18.47,2.42,82.94,82.94,0,0,1-20.66-2.56,68,68,0,0,1-17.9-7.3l5.12-19.13a103.21,103.21,0,0,0,16.05,7.1,52,52,0,0,0,16.15,2.28q13.46,0,20.84-6.63a21.46,21.46,0,0,0,7.39-16.68v-10h-.38Q693,224.4,675.4,224.39a48.66,48.66,0,0,1-23.68-5.73,41.37,41.37,0,0,1-16.53-16.44,49.19,49.19,0,0,1-6-24.53,52.05,52.05,0,0,1,5.74-24.58A42.3,42.3,0,0,1,651,136a44.58,44.58,0,0,1,23.3-6.16,43.71,43.71,0,0,1,15.87,2.94,40.7,40.7,0,0,1,13.5,8.52H704v-9.94Zm-28.18,65.22q7.44-7.82,7.44-19.85a28.66,28.66,0,0,0-2.09-11,25.13,25.13,0,0,0-5.63-8.53,25.53,25.53,0,0,0-8.48-5.4,28.54,28.54,0,0,0-10.52-1.94q-12,0-19.51,7.58T651.25,177q0,12.5,7.62,19.94t19.37,7.43Q690.09,204.4,697.52,196.59Z"/><path class="cls-1" d="M827.77,131.37V226H806.08V213.69h-.28A37.9,37.9,0,0,1,792.63,224a37.25,37.25,0,0,1-16,3.56,44.68,44.68,0,0,1-14.35-2.14,30.29,30.29,0,0,1-11.08-6.58,28.47,28.47,0,0,1-7.34-12A55.54,55.54,0,0,1,741.29,189V131.37H763v51.72a53.73,53.73,0,0,0,1.09,11.84,18,18,0,0,0,3.46,7.58,12.93,12.93,0,0,0,5.78,4,25.88,25.88,0,0,0,8.43,1.19,21.36,21.36,0,0,0,9.18-2,24.18,24.18,0,0,0,7.77-5.82,27.09,27.09,0,0,0,5.4-9.81,42.42,42.42,0,0,0,2-13.4V131.37Z"/><path class="cls-1" d="M847.24,113a14.31,14.31,0,0,1,0-20.37,14.27,14.27,0,0,1,10.42-4.21,14.11,14.11,0,0,1,10.28,4.26,14,14,0,0,1,2.32,17.33,14.59,14.59,0,0,1-5.35,5.26A14.81,14.81,0,0,1,847.24,113Zm-.56,18.33h21.69V226H846.68Z"/><path class="cls-1" d="M967.36,139.85q9.24,9.9,9.24,30.45v55.79H954.91v-50.2a50.68,50.68,0,0,0-1.33-12.5,18.62,18.62,0,0,0-4.07-8.1,16,16,0,0,0-6.4-4.31,25.55,25.55,0,0,0-8.76-1.33,25.91,25.91,0,0,0-10,1.89,21.38,21.38,0,0,0-7.77,5.5,24.66,24.66,0,0,0-5,9.09,40.43,40.43,0,0,0-1.75,12.32V226h-21.7V131.37h21.7v13h.28a39.86,39.86,0,0,1,14.21-10.71A42.39,42.39,0,0,1,941.83,130Q958.14,130,967.36,139.85Z"/><g id="E2qL7f60-NQcqnYHuyY2S"><g id="p4j0oom2xczgNvd_7C_Jg" data-name="p4j0oom2xczgNvd 7C Jg"><path class="cls-2" d="M319.93,138.13A160.64,160.64,0,0,0,4.57,123.59c12.36-3.22,31.56-7.14,45.75-5.94,12.84,1.12,81.67,7.41,81.67,7.41a58.45,58.45,0,0,1,22.89-8c22.12-3.12,40.42,7.37,42.68,23.33,1.93,13.62-7.36,21.6-19.53,23.32-13.61,1.93-35.25-3.82-54.87-5.72C106.79,156.39,95.5,170,97.7,185.57c4,28.27,36.91,45.77,79.84,39.7,38.08-5.38,60.78-36.49,55.24-75.62-6.4-45.28-44.05-67.06-79.13-62.1-13.61,1.93-27.52,9.23-34.58,16.91a4.79,4.79,0,0,1-4.44,1.69c-5.13-.47-16.39-1.68-18.68-1.89-3-.25-3.87-1.86-2.86-5.07,6.48-21.21,33.65-37.73,57.07-41,50.13-7.08,101.34,22.78,111.06,91.49,7.79,55.1-25.4,103.58-78,111-54.83,7.75-103.82-20.56-110.59-68.46-2.28-16.1,4-32.46,13.17-39l-39.22-4.6c-14.38-1.57-33-8.82-44.55-13.86a160.74,160.74,0,1,0,317.92,3.37"/></g></g></g></g></svg>