<?xml version="1.0" encoding="UTF-8" standalone="no" ?>
<!DOCTYPE svg PUBLIC "-//W3C//DTD SVG 1.1//EN" "http://www.w3.org/Graphics/SVG/1.1/DTD/svg11.dtd">
<svg xmlns="http://www.w3.org/2000/svg" xmlns:xlink="http://www.w3.org/1999/xlink" version="1.1" width="2986.24" height="2444" viewBox="0 0 2986.24 2444" xml:space="preserve">
<desc>Created with Fabric.js 4.6.0</desc>
<defs>
</defs>
<g transform="matrix(0.14 0.99 -0.99 0.14 1493.12 1265.94)" id="E2qL7f60-NQcqnYHuyY2S"  >
<g style="" vector-effect="non-scaling-stroke"   >
		<g transform="matrix(0.18 0 0 -0.18 0 -0.01)" id="z_u_D7CWfKYWNuvvWOssR"  >
<path style="stroke: none; stroke-width: 1; stroke-dasharray: none; stroke-linecap: butt; stroke-dashoffset: 0; stroke-linejoin: miter; stroke-miterlimit: 4; fill: rgb(255,255,255); fill-rule: nonzero; opacity: 1;" vector-effect="non-scaling-stroke"  transform=" translate(-8150, -6670.15)" d="M 16300 0 L 0 0 L 0 13340.3 L 16300 13340.3 L 16300 0" stroke-linecap="round" />
</g>
		<g transform="matrix(0.15 0 0 -0.15 0 0)" id="p4j0oom2xczgNvd_7C_Jg"  >
<path style="stroke: none; stroke-width: 1; stroke-dasharray: none; stroke-linecap: butt; stroke-dashoffset: 0; stroke-linejoin: miter; stroke-miterlimit: 4; fill: rgb(4,6,6); fill-rule: nonzero; opacity: 1;" vector-effect="non-scaling-stroke"  transform=" translate(-9694.73, -7934.38)" d="M 9700.16 14539.7 C 6055.25 14539.7 3100.24 11584.7 3100.24 7939.780000000001 C 3100.24 5142.310000000001 4838.49 2752.2200000000003 7293.75 1790.750000000001 C 7234 2312.170000000001 7185.11 3116.170000000001 7315.48 3686.510000000001 C 7434.99 4202.560000000001 8086.83 6967.420000000001 8086.83 6967.420000000001 C 8086.83 6967.420000000001 7891.28 7363.990000000001 7891.28 7945.210000000001 C 7891.28 8863.220000000001 8423.61 9547.660000000002 9086.279999999999 9547.660000000002 C 9651.249999999998 9547.660000000002 9922.829999999998 9123.960000000001 9922.829999999998 8618.780000000002 C 9922.829999999998 8053.850000000002 9564.329999999998 7206.450000000003 9374.219999999998 6418.810000000003 C 9216.659999999998 5761.560000000003 9705.529999999997 5223.770000000003 10351.999999999998 5223.770000000003 C 11525.299999999997 5223.770000000003 12426.999999999998 6462.280000000003 12426.999999999998 8243.980000000003 C 12426.999999999998 9824.690000000002 11291.699999999999 10927.400000000003 9667.529999999999 10927.400000000003 C 7788.069999999999 10927.400000000003 6685.359999999999 9520.490000000003 6685.359999999999 8064.720000000003 C 6685.359999999999 7499.790000000003 6902.6399999999985 6891.4100000000035 7174.239999999999 6560.010000000003 C 7228.569999999999 6494.820000000003 7233.999999999999 6435.090000000003 7217.699999999999 6369.900000000003 C 7168.819999999999 6163.510000000003 7054.739999999999 5712.640000000003 7033.019999999999 5620.360000000003 C 7005.859999999999 5500.800000000003 6935.239999999999 5473.6200000000035 6810.299999999998 5533.440000000003 C 5984.6399999999985 5919.030000000003 5468.5999999999985 7119.530000000003 5468.5999999999985 8091.880000000003 C 5468.5999999999985 10172.300000000003 6978.699999999999 12084.400000000003 9830.539999999997 12084.400000000003 C 12117.299999999997 12084.400000000003 13899.099999999997 10454.800000000003 13899.099999999997 8271.130000000003 C 13899.099999999997 5995.130000000003 12464.999999999996 4164.560000000003 10476.899999999998 4164.560000000003 C 9808.809999999998 4164.560000000003 9178.649999999998 4512.150000000003 8966.809999999998 4925.010000000003 C 8966.809999999998 4925.010000000003 8635.459999999997 3664.780000000003 8553.979999999998 3355.200000000003 C 8407.319999999998 2779.4000000000033 8005.349999999998 2062.320000000003 7733.739999999998 1622.360000000003 C 8352.999999999998 1432.2500000000032 9004.809999999998 1329.0600000000031 9689.259999999998 1329.0600000000031 C 13334.099999999999 1329.0600000000031 16289.199999999997 4284.0300000000025 16289.199999999997 7928.920000000003 C 16299.999999999996 11584.700000000003 13344.999999999996 14539.700000000003 9700.159999999996 14539.700000000003" stroke-linecap="round" />
</g>
</g>
</g>
</svg>