<?xml version="1.0" encoding="UTF-8" standalone="no" ?>
<!DOCTYPE svg PUBLIC "-//W3C//DTD SVG 1.1//EN" "http://www.w3.org/Graphics/SVG/1.1/DTD/svg11.dtd">
<svg xmlns="http://www.w3.org/2000/svg" xmlns:xlink="http://www.w3.org/1999/xlink" version="1.1" width="640" height="640" viewBox="0 0 640 640" xml:space="preserve">
<desc>Created with Fabric.js 4.6.0</desc>
<defs>
</defs>
<g transform="matrix(1.98 0 0 1.98 319.78 320.74)" id="FqZzEhblgfwedbJ87ZEXZ"  >
<path style="stroke: none; stroke-width: 1; stroke-dasharray: none; stroke-linecap: butt; stroke-dashoffset: 0; stroke-linejoin: miter; stroke-miterlimit: 4; fill: rgb(239,239,239); fill-opacity: 0.94; fill-rule: nonzero; opacity: 1;" vector-effect="non-scaling-stroke"  transform=" translate(0, 0)" d="M 159.19258 -22.36402 C 148.36699 -98.82014 84.67443999999999 -156.75635 7.537659999999988 -160.31282000000002 C -69.59912000000001 -163.86929 -138.35254 -112.03964000000002 -156.16742000000002 -36.90402000000002 C -143.80742000000004 -40.124020000000016 -124.60742000000002 -44.04402000000002 -110.41742000000002 -42.844020000000015 C -97.57742000000002 -41.72402000000002 -28.74742000000002 -35.43402000000002 -28.74742000000002 -35.43402000000002 C -21.760510000000018 -39.67140000000002 -13.96275000000002 -42.39671000000002 -5.857420000000019 -43.43402000000002 C 16.262579999999982 -46.554020000000016 34.56257999999998 -36.06402000000002 36.82257999999998 -20.10402000000002 C 38.75257999999998 -6.4840200000000205 29.46257999999998 1.4959799999999817 17.29257999999998 3.2159799999999805 C 3.68257999999998 5.14597999999998 -17.95742000000002 -0.6040200000000193 -37.57742000000002 -2.5040200000000192 C -53.94742000000002 -4.10402000000002 -65.23742000000001 9.50597999999998 -63.03742000000002 25.07597999999998 C -59.03742000000002 53.34597999999998 -26.127420000000022 70.84597999999998 16.802579999999985 64.77597999999998 C 54.88257999999998 59.39597999999997 77.58257999999998 28.285979999999974 72.04257999999999 -10.844020000000029 C 65.64257999999998 -56.12402000000003 27.99257999999999 -77.90402000000003 -7.087420000000009 -72.94402000000002 C -20.697420000000008 -71.01402000000002 -34.607420000000005 -63.71402000000002 -41.66742000000001 -56.03402000000003 C -42.74412000000001 -54.72473000000003 -44.432640000000006 -54.082030000000024 -46.107420000000005 -54.34402000000003 C -51.23742000000001 -54.81402000000003 -62.497420000000005 -56.02402000000003 -64.78742 -56.23402000000003 C -67.78742 -56.48402000000003 -68.65742 -58.09402000000003 -67.64742 -61.30402000000003 C -61.16741999999999 -82.51402000000003 -33.99742 -99.03402000000003 -10.577419999999996 -102.30402000000004 C 39.552580000000006 -109.38402000000004 90.76258000000001 -79.52402000000004 100.48258000000001 -10.814020000000042 C 108.27258000000002 44.28597999999996 75.08258000000001 92.76597999999996 22.482580000000013 100.18597999999996 C -32.347419999999985 107.93597999999996 -81.33741999999998 79.62597999999996 -88.10741999999999 31.725979999999964 C -90.38741999999999 15.625979999999963 -84.10741999999999 -0.7340200000000365 -74.93741999999999 -7.274020000000036 L -114.15741999999999 -11.874020000000035 C -128.53742 -13.444020000000036 -147.15742 -20.694020000000037 -158.70741999999998 -25.734020000000037 C -168.71814999999998 36.62202999999997 -141.28645999999998 99.06219999999996 -88.58940999999999 133.86898999999997 C -35.89235999999999 168.67577999999997 32.30405000000002 169.39866999999998 85.72708 135.71676999999997 C 139.15012000000002 102.03486999999997 167.89925 40.19021999999997 159.21258 -22.36402000000004" stroke-linecap="round" />
</g>
</svg>